<svg xmlns="http://www.w3.org/2000/svg" width="180" height="180" viewBox="0 0 180 180" fill="none">
  <defs>
    <linearGradient id="billixa-grad" x1="0" y1="0" x2="180" y2="180" gradientUnits="userSpaceOnUse">
      <stop stop-color="#FF6B35"/>
      <stop offset="0.5" stop-color="#F7C94B"/>
      <stop offset="1" stop-color="#4ECDC4"/>
    </linearGradient>
  </defs>
  <rect width="180" height="180" rx="42" fill="#071120"/>
  <path d="M55 42H98C116 42 130 54 130 70C130 84 119 93 103 98C126 103 145 121 145 145C145 166 126 180 100 180H55V42Z" fill="url(#billixa-grad)" opacity="0.9"/>
  <path d="M70 56V74H96C108 74 118 67 118 56C118 45 108 38 96 38H70V56ZM70 94V112H103C116 112 126 103 126 90C126 77 116 68 103 68H70V94Z" fill="#071120"/>
  <path d="M122 42H140L158 42V56H144L158 70V84H140L122 84V70H136L122 56V42Z" fill="url(#billixa-grad)" opacity="0.7"/>
  <circle cx="90" cy="90" r="5" fill="#F7C94B"/>
</svg>
