<svg xmlns="http://www.w3.org/2000/svg" width="192" height="192" viewBox="0 0 192 192" fill="none">
  <defs>
    <linearGradient id="g1" x1="0" y1="0" x2="192" y2="192" gradientUnits="userSpaceOnUse">
      <stop stop-color="#0EA5E9"/>
      <stop offset="1" stop-color="#14B8A6"/>
    </linearGradient>
  </defs>
  <rect width="192" height="192" rx="44" fill="#0F172A"/>
  <circle cx="96" cy="96" r="66" fill="url(#g1)" opacity="0.24"/>
  <path d="M96 41C77.8 41 63 55.8 63 74C63 100.2 96 150 96 150C96 150 129 100.2 129 74C129 55.8 114.2 41 96 41ZM96 89C87.7 89 81 82.3 81 74C81 65.7 87.7 59 96 59C104.3 59 111 65.7 111 74C111 82.3 104.3 89 96 89Z" fill="#F8FAFC"/>
  <circle cx="96" cy="74" r="8" fill="#0EA5E9"/>
</svg>
