<svg width="1200" height="800" viewBox="0 0 1200 800" xmlns="http://www.w3.org/2000/svg" role="img" aria-label="Community city walk with trees">
  <defs>
    <linearGradient id="sky2" x1="0" y1="0" x2="0" y2="1">
      <stop offset="0%" stop-color="#22d3ee" />
      <stop offset="55%" stop-color="#a7f3d0" />
      <stop offset="100%" stop-color="#fef9c3" />
    </linearGradient>
  </defs>
  <rect width="1200" height="800" fill="url(#sky2)" />
  <rect y="470" width="1200" height="330" fill="#86efac" />
  <rect y="560" width="1200" height="240" fill="#65a30d" />
  <path d="M0 540L360 500L680 550L1200 500V620H0Z" fill="#bef264" />
  <path d="M80 620H1120V800H80Z" fill="#4b5563" />
  <path d="M80 640H1120" stroke="#e5e7eb" stroke-width="8" stroke-dasharray="26 20" />
  <g>
    <rect x="180" y="375" width="44" height="150" fill="#92400e" />
    <circle cx="202" cy="348" r="66" fill="#16a34a" />
    <rect x="960" y="390" width="40" height="150" fill="#78350f" />
    <circle cx="980" cy="360" r="70" fill="#22c55e" />
  </g>
  <g fill="#1f2937">
    <circle cx="520" cy="628" r="24" />
    <rect x="500" y="648" width="40" height="84" rx="16" />
    <circle cx="600" cy="624" r="23" />
    <rect x="581" y="644" width="38" height="84" rx="16" />
    <circle cx="690" cy="630" r="22" />
    <rect x="672" y="648" width="36" height="82" rx="15" />
  </g>
  <g fill="#f8fafc" opacity="0.95">
    <rect x="510" y="666" width="20" height="48" rx="8" />
    <rect x="590" y="662" width="20" height="48" rx="8" />
    <rect x="680" y="668" width="20" height="48" rx="8" />
  </g>
  <circle cx="1080" cy="130" r="42" fill="#fde68a" />
</svg>
