<svg width="1200" height="800" viewBox="0 0 1200 800" xmlns="http://www.w3.org/2000/svg" role="img" aria-label="Friends meeting on a rooftop at sunset">
  <defs>
    <linearGradient id="sky" x1="0" y1="0" x2="0" y2="1">
      <stop offset="0%" stop-color="#f97316" />
      <stop offset="58%" stop-color="#fb7185" />
      <stop offset="100%" stop-color="#0f172a" />
    </linearGradient>
    <linearGradient id="city" x1="0" y1="0" x2="0" y2="1">
      <stop offset="0%" stop-color="#1f2937" />
      <stop offset="100%" stop-color="#020617" />
    </linearGradient>
  </defs>
  <rect width="1200" height="800" fill="url(#sky)" />
  <circle cx="185" cy="160" r="58" fill="#fde68a" opacity="0.85" />
  <rect y="500" width="1200" height="300" fill="url(#city)" />
  <rect x="80" y="380" width="120" height="130" rx="8" fill="#1e293b" />
  <rect x="230" y="320" width="180" height="190" rx="8" fill="#111827" />
  <rect x="430" y="350" width="110" height="160" rx="8" fill="#1f2937" />
  <rect x="565" y="270" width="190" height="240" rx="10" fill="#0f172a" />
  <rect x="785" y="335" width="150" height="175" rx="8" fill="#1e293b" />
  <rect x="960" y="290" width="130" height="220" rx="8" fill="#111827" />
  <rect y="510" width="1200" height="110" fill="#111827" />
  <g fill="#fef3c7" opacity="0.8">
    <circle cx="320" cy="556" r="18" />
    <circle cx="382" cy="556" r="18" />
    <circle cx="446" cy="556" r="18" />
  </g>
  <g fill="#f8fafc">
    <circle cx="300" cy="612" r="20" />
    <rect x="284" y="630" width="32" height="64" rx="14" />
    <circle cx="380" cy="604" r="22" />
    <rect x="362" y="626" width="36" height="78" rx="16" />
    <circle cx="462" cy="614" r="19" />
    <rect x="446" y="632" width="30" height="66" rx="14" />
  </g>
  <path d="M720 620h350v80H690z" fill="#0b1120" opacity="0.75" />
</svg>
